<svg width="200" height="200" viewBox="0 0 200 200" fill="none" xmlns="http://www.w3.org/2000/svg">
  <rect width="200" height="200" fill="#F3F4F6"/>
  <path d="M100 80C88.9543 80 80 88.9543 80 100C80 111.046 88.9543 120 100 120C111.046 120 120 111.046 120 100C120 88.9543 111.046 80 100 80ZM100 110C94.4772 110 90 105.523 90 100C90 94.4772 94.4772 90 100 90C105.523 90 110 94.4772 110 100C110 105.523 105.523 110 100 110Z" fill="#9CA3AF"/>
  <path d="M140 60H60C57.2386 60 55 62.2386 55 65V135C55 137.761 57.2386 140 60 140H140C142.761 140 145 137.761 145 135V65C145 62.2386 142.761 60 140 60ZM60 65H140V135H60V65Z" fill="#9CA3AF"/>
</svg>